<?xml version="1.0" encoding="utf-8"?>
<!-- Generator: Adobe Illustrator 14.0.0, SVG Export Plug-In . SVG Version: 6.00 Build 43363)  -->
<!DOCTYPE svg PUBLIC "-//W3C//DTD SVG 1.1//EN" "http://www.w3.org/Graphics/SVG/1.1/DTD/svg11.dtd">
<svg version="1.1" id="Ebene_1" xmlns="http://www.w3.org/2000/svg" xmlns:xlink="http://www.w3.org/1999/xlink" x="0px" y="0px"
	 width="300px" height="225px" viewBox="0 0 300 225" enable-background="new 0 0 300 225" xml:space="preserve">
<path d="M101.5,33.2c-0.3,1.1-2.5,90.6-2.5,102.5c0,4.2,0.1,4.3,4,4.899c4,0.601,4,0.7,4,5c0,2.4,0.5,4.4,1,4.4c0.6,0,1-1.3,1-2.9
	c0-2.699,0.1-2.8,4.8-2.6c2.6,0.2,9,1,14.2,1.8c24.1,4,35.9,5.8,40.5,6.3c10.2,1.101,11.6,1.5,12.5,3.7c0.7,1.9,0.9,1.601,0.9-1.6
	c0.1-3.7,0.1-3.8-3.101-3.2c-1.899,0.4-14.6-1.1-29.8-3.5c-39.8-6-39.8-6.1-41.1-7.6c-0.6-0.801-2-1.4-3-1.4s-2.1-0.5-2.5-1.2
	c-0.5-0.8-0.2-0.899,0.9-0.5c0.9,0.3,1.9,0.2,2.2-0.3s-0.7-1-2.2-1.2c-2.1-0.2-2.7-0.8-2.6-2.3c0.1-1.1,0.5-17.3,0.8-36
	c1.1-55.3,1.1-57.1,1.8-58.2c0.4-0.6,0.2-1.3-0.4-1.5c-0.7-0.2-0.9-1.3-0.5-2.5c0.6-1.9,1.3-2,13.9-1.8C140.2,34,171.4,35,177,35.6
	c3.5,0.4,5.1,0.2,4.5-0.4c-0.5-0.5-15.8-1.5-34-2.1C105.7,31.7,102,31.7,101.5,33.2z"/>
<path d="M184.6,52.7c-0.399,9.8-1.3,33.8-2.1,53.3c-0.7,19.5-1.1,35.8-0.8,36.3c0.2,0.4,1.399,0.5,2.5,0.101c3-0.9,3.7,1,4,11.1
	l0.2,9l0.399-7.5c0.2-4.1,0-9-0.3-10.9c-0.6-3.1-0.9-3.3-3.6-2.699L182,142l0.5-9.3c0.3-5,1.2-28.1,2.1-51.2
	c0.801-23.1,1.7-42.5,1.9-43.1s0-1.6-0.4-2.3C185.6,35.4,185,42.9,184.6,52.7z"/>
<path d="M203.1,37c-0.899,0.5-0.399,0.7,1.301,0.7c2.899,0,3.199-0.2,1.3-1C204.9,36.4,203.7,36.5,203.1,37z"/>
<path d="M208.6,37.4c0.301,0.9,1.601,1.6,2.801,1.5c1.399,0,1.6-0.2,0.6-0.6c-0.8-0.3-2.1-1-2.8-1.6C208.3,36,208.1,36.1,208.6,37.4
	z"/>
<path d="M217.8,37.8c4,3.5,4.4,8.4,4.3,53c0,28.5-0.399,42.9-1.1,43.7s-0.7,1.5-0.2,1.9c1.3,0.8,2.2-1.7,2.2-5.9
	c0-2.3,0.7-3.7,2.3-4.7c5.9-3.8,10.7-2.6,17.4,4.3l4.2,4.4l-2.9,4.4c-3.3,4.899-3.8,9.1-1.4,11.5c1.7,1.699,2.9,2.1,2,0.699
	c-0.3-0.399,0.301-1.6,1.4-2.6s3.1-3.8,4.6-6.2c2.2-3.8,2.9-4.3,4.7-3.6c1.2,0.399,5.101,0.8,8.7,0.8c5.8,0,6.6-0.2,7.5-2.3
	c0.5-1.2,1.3-2.2,1.7-2.2c1.399,0,4.8,5.4,5.899,9.3c1.7,6.4,0.5,9.8-4.8,13.2c-2.6,1.6-4.899,3.6-5.1,4.4
	c-0.3,0.8,1.399-0.101,3.7-1.9c2.199-1.8,4.399-3.1,4.699-2.7c0.301,0.3-1.3,1.8-3.5,3.3c-2.3,1.5-3.899,2.9-3.699,3.101
	c0.899,0.899,6.5-2.8,8.399-5.4c1.601-2.3,3.7-3.2,11.601-5.2c5.3-1.3,9.6-2.8,9.6-3.3s-0.8-0.7-1.7-0.399
	c-2.899,0.8-16.7,4.6-17,4.6c-0.2,0-0.3-2.3-0.3-5c0-6.3-1.8-10.6-6.1-14.7c-1.9-1.8-4.4-4.399-5.7-5.7c-4.3-4.5-10.7-4-17.5,1.5
	l-3.9,3.101l-4.6-4.5c-7.3-7-10.9-8.101-16.601-5.2c-1.5,0.8-3.1,1.5-3.399,1.5c-0.2,0-0.2-16.3,0.2-36.3
	c0.699-32.2,0.6-37-0.9-43.7c-1.7-7.4-2.7-9-5.4-9C216.1,36,216.4,36.6,217.8,37.8z M267,128.5c4.3,2.2,3.7,3.5-1.8,3.5
	c-2.8,0-6.4,0.8-8.7,2c-2.2,1.1-4.8,1.8-6,1.5c-1.8-0.5-1.8-0.4-0.4,0.7c1.5,1,1.301,1.7-2,7c-2,3.2-3.899,5.8-4.3,5.8
	c-0.5,0-0.8-1.5-0.8-3.4c0-6.399,11.9-18.6,18.2-18.6C262.8,127,265.4,127.7,267,128.5z M269.8,133.8c0.7,0.5,1,1.601,0.601,2.5
	c-0.5,1.4-2,1.7-7.4,1.7c-7.3,0-9.4-1-5.7-2.8C262,132.9,267.4,132.3,269.8,133.8z"/>
<path d="M106.8,38.7c1.2,0.2,3.2,0.2,4.5,0c1.2-0.2,0.2-0.4-2.3-0.4S105.5,38.5,106.8,38.7z"/>
<path d="M115.8,38.7c0.7,0.3,1.6,0.2,1.9-0.1c0.4-0.3-0.2-0.6-1.3-0.5C115.3,38.1,115,38.4,115.8,38.7z"/>
<path d="M159.3,40.7c0.9,0.2,2.3,0.2,3,0c0.601-0.3-0.1-0.5-1.8-0.5C158.9,40.2,158.3,40.4,159.3,40.7z"/>
<path d="M164.8,40.7c0.7,0.3,1.601,0.2,1.9-0.1c0.399-0.3-0.2-0.6-1.3-0.5C164.3,40.1,164,40.4,164.8,40.7z"/>
<path d="M106.3,48.7c0,2.7,0.2,3.6,0.4,2c0.3-1.9,0.9-2.7,1.8-2.4c0.8,0.4,1.1,0,0.8-1.1c-0.3-1.4,0.5-1.8,5.4-2
	c8.4-0.5,7.9-1.2-0.9-1.2h-7.5V48.7z"/>
<path d="M135.3,45.7c0.9,0.2,2.5,0.2,3.5,0c0.9-0.3,0.1-0.5-1.8-0.5S134.3,45.4,135.3,45.7z"/>
<path d="M158,47.1c4.7,0.4,10,1,11.8,1.3c1.7,0.2,3.2,0.1,3.2-0.3c0-0.9-12.9-2.2-19.4-2C151.3,46.2,153.3,46.6,158,47.1z"/>
<path d="M111.9,49.7c-0.5,1.5-1.3,12.4-1.6,24.3c-0.7,26.4-1.5,24.9,13.8,27.3c13.5,2.2,28.4,3.6,38.5,3.7h8.101l0.7-14.3
	c0.3-7.8,0.899-20.1,1.199-27.4l0.601-13.2l-3.3-0.5c-8.301-1.5-26.7-2.6-41.2-2.6H113L111.9,49.7z M159.7,49.7
	c5,0.3,9.6,0.9,10.1,1.2c0.9,0.6,0,32.9-1.399,46l-0.601,6.4l-12.6-0.7c-14.8-0.7-40.1-4.3-42.1-5.9c-2-1.7-1.2-44.7,0.9-47.2
	c1.4-1.6,3-1.7,19-1.1C142.6,48.7,154.6,49.3,159.7,49.7z"/>
<path d="M106.3,59c0,3,0.2,4.3,0.4,2.7c0.2-1.5,0.2-3.9,0-5.5C106.5,54.7,106.3,56,106.3,59z"/>
<path d="M105,86.3c-0.3,8.1-0.3,14.7,0.1,14.7c0.8,0,2.9-2.3,2.9-3.3c0-0.4-0.4-0.5-1-0.2c-0.6,0.4-1-4.4-1.2-12.7l-0.3-13.3
	L105,86.3z"/>
<path d="M107.8,103.7c0.7,0.3,1.6,0.2,1.9-0.1c0.4-0.3-0.2-0.6-1.3-0.5C107.3,103.1,107,103.4,107.8,103.7z"/>
<path d="M118.8,104.7c0.7,0.3,1.6,0.2,1.9-0.1c0.4-0.3-0.2-0.6-1.3-0.5C118.3,104.1,118,104.4,118.8,104.7z"/>
<path d="M124,105.4c0,0.2,1.3,0.6,2.9,0.8c1.7,0.2,2.8,0.1,2.5-0.4C128.9,105,124,104.6,124,105.4z"/>
<path d="M132.8,106.7c1.2,0.2,3,0.2,4,0c0.9-0.3-0.1-0.5-2.3-0.4C132.3,106.3,131.5,106.5,132.8,106.7z"/>
<path d="M143.3,107.7c0.9,0.2,2.3,0.2,3,0c0.6-0.3-0.1-0.5-1.8-0.5C142.9,107.2,142.3,107.4,143.3,107.7z"/>
<path d="M150.3,108.7c0.9,0.2,2.5,0.2,3.5,0c0.9-0.3,0.101-0.5-1.8-0.5C150.1,108.2,149.3,108.4,150.3,108.7z"/>
<path d="M104.5,118c-0.8,1.3,1.3,4.2,2.5,3.5c1.1-0.7,0.6-3.8-0.7-4.2C105.7,117.1,104.9,117.4,104.5,118z"/>
<path d="M111,119.4c0,1.899,2.6,2.199,3.6,0.3c0.4-0.601,0.4-0.9-0.1-0.5c-0.4,0.399-1.4,0.3-2.2-0.3C111.3,118,111,118.1,111,119.4
	z"/>
<path d="M116,120.4c0,0.6,0.9,1.199,2,1.3c1.1,0.1,2-0.2,2-0.601c0-0.5-0.9-1.1-2-1.399C116.8,119.4,116,119.7,116,120.4z"/>
<path d="M121,120.5c0,0.8,0.2,1.5,0.4,1.5c0.2,0,1.1,0.3,2,0.6c2.3,0.9,2-0.899-0.4-2.399C121.3,119.2,121,119.2,121,120.5z"/>
<path d="M135.8,121.7c0.6,0.3,1.2,1,1.2,1.7c0,0.8,3.5,1.6,10.7,2.5c5.899,0.699,11,1.5,11.3,1.899c1,1.4,7,1.4,7.1,0
	c0-0.7,0.4-0.399,0.9,0.7c0.8,1.8,0.9,1.7,0.9-0.8c0.1-2.5-0.2-2.7-3.9-2.7c-2.2,0-4-0.5-4-1.1c0-0.7,1.5-0.9,4.3-0.5
	c3.101,0.399,3.5,0.3,1.7-0.301c-4.1-1.399-7-1.3-7,0.4c0,1.1-0.7,1.4-2.2,1c-1.3-0.2-5.8-0.9-10.1-1.5c-4.3-0.5-8.8-1.2-10-1.4
	C135.5,121.5,135.1,121.5,135.8,121.7z"/>
<path d="M178.3,128c0,3.6,0.2,5,0.4,3.2c0.2-1.7,0.2-4.7,0-6.5C178.5,123,178.3,124.4,178.3,128z"/>
<path d="M164,132.4c0,0.199,0.9,0.6,2,0.899s1.8,0.101,1.4-0.399C166.9,132,164,131.6,164,132.4z"/>
<path d="M219.9,138.2c2.399,2.7,1.699,4-0.801,1.5c-0.699-0.601-1.199-0.8-1.1-0.2c0.4,2,0,3.6-0.9,3.1
	c-0.399-0.3-0.699-1.699-0.6-3l0.3-2.5l-4,2c-3.2,1.7-3.7,2.301-2.8,3.5c0.9,1,0.9,1.4,0.1,1.4c-2.199,0-2.6-0.2-2.3-1.1
	c0.101-0.5-1.5-0.101-3.7,1c-3.5,1.8-3.899,2.399-3.6,5.6c0.2,3.8-0.5,4.4-2.5,2c-0.7-0.8-0.8-1.5-0.3-1.5s1-0.7,1-1.4
	c0-1.199-0.5-1.3-1.9-0.5c-1.899,1-1.899,1.2-0.2,3c0.9,1,1.2,1.9,0.7,1.9c-0.6,0-1.6-0.7-2.3-1.5c-0.7-0.9-1.8-1.4-2.3-1.2
	c-1.7,0.5-1.7,4,0.1,5.5c1.4,1.101,1.5,1.3,0.101,0.9c-0.9-0.3-1.601,0.1-1.601,0.899c0,1,0.7,0.9,3.101-0.5
	c8.3-5,26.399-15.1,27.1-15.1c0.4,0,0.4,0.7,0.1,1.6c-0.3,0.801-0.199,1.2,0.301,0.9c1.699-1,0.699-4.5-1.9-6.8l-2.5-2.2
	L219.9,138.2z M215.6,140.2c0.4,0.7,0.301,0.8-0.399,0.399c-0.7-0.399-1.2-0.199-1.2,0.4s-0.5,0.8-1.2,0.4
	c-0.7-0.4-0.8-0.301-0.399,0.5c0.399,0.6,1.1,0.899,1.6,0.6s1.2,0,1.6,0.6c0.4,0.7,0.301,0.9-0.3,0.601c-0.6-0.4-1.399,0-1.7,0.899
	c-0.3,0.801-1,1.2-1.6,0.9c-0.6-0.4-0.8-1-0.5-1.5s0-1.2-0.6-1.6c-0.801-0.4-0.4-1.101,1.199-2C215.1,138.8,214.7,138.8,215.6,140.2
	z M208.9,145.6c0.5-0.399,1.3-0.1,1.699,0.5c0.4,0.801,0.301,0.9-0.399,0.5c-0.7-0.399-1.2-0.3-1.2,0.301c0,0.6-1.3,1.699-2.9,2.5
	c-2.899,1.5-4.1,1.1-5.3-1.7c-0.5-1.5,4.601-3.7,5.9-2.5C207.4,145.7,208.4,145.9,208.9,145.6z M195.6,153.2c1,1.2,1.4,1.8,0.7,1.5
	c-0.6-0.4-1.3-0.2-1.5,0.399c-0.2,0.7-1,0.4-1.8-0.699c-0.9-1.101-1-1.5-0.2-1c0.601,0.399,1.2,0.3,1.2-0.301
	c0-0.5-0.6-1.199-1.2-1.399c-0.8-0.3-0.8-0.601-0.2-0.601C193.2,151,194.5,152,195.6,153.2z"/>
<path d="M205,145.4c0,0.199,0.8,1,1.8,1.699c1.5,1.301,1.601,1.2,0.3-0.399C205.8,145.1,205,144.6,205,145.4z"/>
<path d="M203,146.4c0,0.199,0.8,1,1.8,1.699c1.5,1.301,1.601,1.2,0.3-0.399C203.8,146.1,203,145.6,203,146.4z"/>
<path d="M110.3,137.7c0.9,0.2,2.3,0.2,3,0c0.6-0.3-0.1-0.5-1.8-0.5C109.9,137.2,109.3,137.4,110.3,137.7z"/>
<path d="M118.5,139.1c2.2,0.4,5.1,0.801,6.5,0.7c1.6,0,1.1-0.3-1.5-0.899c-2.2-0.4-5.1-0.801-6.5-0.7
	C115.4,138.2,115.9,138.5,118.5,139.1z"/>
<path d="M128.5,140.5c2.2,1,12.5,2.1,12.5,1.3c0-0.399-0.8-0.8-1.9-0.8c-1,0-4-0.2-6.7-0.5C129.7,140.2,128,140.2,128.5,140.5z"/>
<path d="M148,143.5c7.4,1.5,11.8,2.1,20.8,3.1c3.4,0.4,6.2,1.101,6.2,1.5c0,0.5,0.5,0.9,1.2,0.9c0.899,0,0.899-0.3,0-1.2
	c-0.7-0.7-7.7-2.3-15.5-3.5C145.5,141.9,137.3,141.4,148,143.5z"/>
<path d="M54.8,145.8c-0.7,1-2.1,2.101-3.1,2.5c-1.7,0.601-3.4,3.4-2.5,4.2c0.9,0.9,8.2,1.2,10.7,0.5c1.6-0.5,1.9-0.9,0.9-0.9
	c-1-0.1-1.8-0.6-1.8-1.1c0-1.8-2-1.1-2.1,0.7c0,1.1-0.3,1.3-0.6,0.5C56.1,151.6,55,151,54,151c-2.2,0-3.8-1.9-1.8-2.1
	c0.7-0.101,2.3-0.301,3.6-0.4c1.2-0.1,2.5,0.2,2.8,0.6c0.3,0.5,1.6,0.601,2.9,0.301c1.2-0.301,2.6-0.101,2.9,0.5
	c0.4,0.6,2,0.8,3.6,0.399c1.9-0.3,3-0.1,3,0.5c0,0.7,1.1,0.9,3,0.5c1.9-0.3,3-0.1,3,0.601c0,0.6-0.4,1.1-0.9,1.1s-1.1,0.9-1.4,1.9
	c-0.4,1.699-0.1,1.899,3.1,1.399c2.6-0.5,3.3-0.3,2.8,0.601c-0.7,1.1,1.7,0.899,6.4-0.5c0.9-0.301,0.7,0.3-0.7,1.699
	c-1.9,1.9-2.6,2.101-4.7,1.101c-1.3-0.601-3.3-0.8-4.4-0.5c-1.1,0.2-2.3,0-2.6-0.601c-0.4-0.6-2-0.8-3.6-0.399
	c-4.1,0.8-3.9-1.4,0.3-2.601c1.7-0.5,2.4-1,1.5-1c-1-0.1-1.8-0.5-1.8-1.1c0-0.5-1.3-0.7-3-0.4c-1.9,0.4-3,0.2-3-0.5
	c0-0.6-0.4-1.1-1-1.1c-0.5,0-1,0.7-1,1.5c0,2.1-3.5,3.7-6.5,2.9C55,155,54,155.2,54,155.8c0,0.601,2.9,1.4,6.5,1.7
	c5.6,0.6,6.3,0.9,4.8,2c-0.9,0.7-2.3,1.1-3,0.8c-0.7-0.3-1.3,0-1.3,0.601c0,0.6,0.6,1.1,1.3,1.1c1,0,17.9,2.6,36.1,5.5
	c2.6,0.5,3.6,0.3,3.1-0.4c-0.3-0.6-1.3-1.1-2.1-1.1c-0.8,0-1.2-0.5-0.9-1c0.3-0.6,0.2-1-0.4-1c-0.5,0-1.2,0.4-1.6,1
	c-0.6,1-3.6,0.2-4.8-1.4c-0.6-0.8-1-0.8-1.3,0c-0.3,0.601-1.6,0.9-2.9,0.601c-1.4-0.2-2.2-0.8-1.9-1.3c0.3-0.5,0.1-0.9-0.5-0.9
	c-0.5,0-1.2,0.4-1.5,0.9c-0.8,1.199-4.6,0.199-4.6-1.2c0-0.8-0.3-0.8-1.1,0c-1.2,1.2-6.1,0.5-5.3-0.8c0.3-0.5,0-0.9-0.5-0.9
	c-0.6,0-1.1,0.4-1.1,0.9s-1.1,0.8-2.5,0.699c-2.6-0.1-3.2-1-1.5-2.1c0.6-0.4,12.5,1,26.4,3.1l25.3,3.801l-1.8,3
	c-1.1,1.699-2.2,3.8-2.5,4.699c-0.4,1.101-1.4,1.4-3,1.101c-4.2-0.8-2.2-5.2,2.4-5.2c1.4,0,2.1-0.4,1.7-1.1
	c-0.4-0.601-1.3-0.801-2-0.5c-0.8,0.3-1.5-0.301-1.7-1.2c-0.2-1.101-1.2-0.101-2.7,2.899c-1.9,3.9-2.7,4.5-4.7,4.101
	c-2.8-0.5-3-1.8-0.8-4.3c0.9-1,1.4-2.601,1.1-3.601c-0.3-1.5-0.6-1.5-1.6,0.7c-3.1,6.4-4.7,8.3-4.3,4.9c0.2-1.101-20.3-3.9-24-3.4
	c-2.3,0.4-2.7,0.3-1.4-0.3c1.4-0.601-0.2-1.101-6-2c-5.5-0.7-8.2-0.7-9.1,0c-1,0.8-1.3,0.5-1.3-1c0-1.2,0.7-2.5,1.6-3
	s1.4-1.7,1.1-2.8c-0.5-1.801-0.5-1.7-1.2,0.3c-0.4,1.2-1.3,2.399-2.1,2.7c-0.8,0.3-1.4,1.199-1.4,2.1c0,1.9-2.6,2-3.4,0
	c-0.6-1.6-3.6-2.1-3.6-0.6c0,0.6-0.9,0.899-2,0.8c-2.4-0.2-2.6-2-0.5-3.7c1-0.8,3.3-1.1,6.5-0.8c2.8,0.3,5,0.1,5-0.3
	c0-0.5-0.6-0.9-1.4-0.9c-0.8,0-1.7-0.6-2-1.3c-0.5-0.9-0.7-0.9-1.2,0c-0.4,0.8-1.1,1-2.2,0.399C47.6,156.8,40,155.9,40,156.9
	c0,0.5-0.9,1.1-2,1.399s-2.4,1.601-2.9,2.9c-0.7,2-0.5,2.399,1.9,3.1c3.6,0.9,79.8,13.4,87,14.2l5.5,0.6l9.8-9.1
	c5.3-5,9.7-9.6,9.7-10.2c0-0.6-0.8-0.399-1.8,0.5c-2.3,2.101-3.2,2.101-3.2,0.2c0-2.2-6.3-2-8.4,0.4c-1.9,2.1-7.4,1.8-5.6-0.4
	c0.5-0.7,2.1-1,3.5-0.7c1.7,0.3,2.7-0.1,3.1-1.2c0.8-2.199-0.3-3.3-1.8-1.8c-1.7,1.7-4.8,1.5-4.8-0.3c0-0.8-0.4-1.5-1-1.5
	c-0.5,0-1,0.4-1,1c0,0.5-1.1,1-2.5,1c-1.7,0-2.5-0.6-2.5-1.8c-0.1-1.5-0.2-1.5-1.3-0.101c-0.7,0.9-1.8,1.4-2.5,1.101
	c-1.5-0.5-5.2,2.6-5.2,4.3c0,0.7-0.8,1.6-1.7,2c-2.6,1.1-6.3,1.2-6.3,0.2c0-0.4-0.6-0.7-1.2-0.601c-0.7,0.101-2.1,0.101-3.1,0
	c-1.5-0.1-1.6-0.399-0.5-2.399c1.7-2.9,2.8-3.7,5.5-3.7c2.1,0,2.1,0.2,0.8,2.7c-0.8,1.5-1.3,2.8-1.2,2.899
	c0.1,0.101,1.8-0.1,3.7-0.5c3.2-0.699,3.3-0.8,1.1-1.399c-2-0.5-2.2-0.9-1.3-2c0.7-0.8,2.3-1.2,3.6-1c1.7,0.399,2.5,0,2.9-1.601
	c0.5-2.1-0.7-2.899-1.8-1.1c-1,1.7-4.5,1.1-4.5-0.7c0-1.3-0.3-1.399-1.2-0.5c-1.5,1.5-5.8,1.601-5.8,0.101c0-0.5,0.4-0.7,1-0.4
	s0.7-0.1,0.4-1c-0.6-1.4-0.8-1.4-2.4,0c-1.9,1.7-5,2-5,0.4c0-0.5,0.4-0.801,0.8-0.5c0.4,0.199,1.4,0.1,2.1-0.301
	c0.9-0.6,0.4-0.899-1.3-0.899c-1.5,0-2.9,0.399-3.2,0.899c-0.3,0.5-1.6,0.9-2.9,0.9c-1.9,0-2.3-0.4-1.8-1.8c0.5-1.4,0.3-1.5-0.8-0.5
	c-1.9,1.899-6,1.7-5.3-0.2c0.4-0.8,0.2-1.5-0.4-1.5c-0.5,0-1.2,0.7-1.6,1.5c-0.3,0.8-1.5,1.5-2.6,1.5c-1.8,0-2-0.4-1.4-2.3
	c0.6-2.101,0.6-2.101-1.3-0.5c-2.9,2.7-5.6,2.399-4.7-0.5c0.6-2.101,0.6-2.101-1.3-0.5c-2.9,2.7-5.6,2.399-4.7-0.5
	c0.6-2.101,0.6-2.101-1.3-0.5c-2.9,2.7-5.6,2.399-4.7-0.5c0.6-2.101,0.6-2.101-1.3-0.5c-1.1,1-2.6,1.8-3.4,1.8
	c-1-0.1-0.8-0.5,0.5-1.5c1.1-0.8,1.5-1.5,0.8-1.5C56.6,144,55.5,144.8,54.8,145.8z M82.6,153.5c-2.2,1.7-5.6,2-5.6,0.6
	c0-1.199,1.9-1.899,5-2C84.4,152.1,84.4,152.1,82.6,153.5z M89.5,153.9c-0.3,0.6,1,0.699,3.2,0.399c3.2-0.5,3.6-0.399,2.7,0.8
	c-0.6,0.801-1.4,2.2-1.7,3.101c-0.5,1.399,0,1.6,3.1,1.1c3.1-0.5,3.5-0.3,2.4,0.8c-1.4,1.5-6.2,2-6.2,0.7c0-0.5-0.6-0.8-1.2-0.7
	c-0.7,0.101-2.1,0.101-3.1,0c-2.8-0.199-0.9-2.1,2.1-2.1h2.7l-2.6-1.4c-1.5-0.699-3.9-1.1-5.3-0.899c-2.6,0.5-3.7-1.101-1.3-2
	C86.5,152.8,90.1,153,89.5,153.9z M67.6,155.5c-2.2,1.7-5.6,2-5.6,0.6c0-1.199,1.9-1.899,5-2C69.4,154.1,69.4,154.1,67.6,155.5z
	 M101.6,156.5c-2.2,1.7-4.2,1.9-5,0.6c-0.9-1.3,0.5-2.1,3.8-2.1C103.3,155.1,103.4,155.1,101.6,156.5z M123,158.6
	c0,1.101-4.4,2.4-6.1,1.9c-1.9-0.6-1.9-0.8-0.3-1.9C118,157.5,123,157.5,123,158.6z M43.6,161.6c-1.2,2.5-1.9,2.801-5.1,1.4
	c-1.3-0.6-1.5-0.9-0.5-0.9c1.3-0.1,1.3-0.199,0-1.1c-1.3-0.8-1.3-0.9,0-1.4C43.9,157.7,45.2,158.2,43.6,161.6z M127.1,162.3
	c-1.2,2.101-2.7,3.3-4.4,3.5c-1.5,0.2-2.7-0.1-2.7-0.7c0-0.5-1.6-0.8-3.5-0.699c-3.6,0.3-4.7-0.7-1.9-1.801
	c2.4-0.899,5.4-0.699,5.4,0.4c0,0.5,0.5,1,1,1c0.6,0,1-0.7,1-1.6c0-2.2,2.9-4.2,5.1-3.7C128.8,159.2,128.8,159.3,127.1,162.3z
	 M143.3,162.4c0.3,0.699-1,2.8-2.8,4.6c-2.9,2.8-3.5,3.1-4.1,1.7c-0.3-1-1.6-1.7-2.8-1.7c-1.1,0-3.1-0.3-4.4-0.6
	c-3.1-0.9-1.1-3.301,2.2-2.7c1.4,0.3,3.5-0.2,4.8-1.101C139,160.6,142.6,160.5,143.3,162.4z M128,168.1c0,0.4,1.5,0.5,3.4,0.2
	c2.5-0.399,3.5-0.1,4,1.2c0.3,1,0.1,2.4-0.5,3.2c-1,1.1-1.4,1.1-2.9-0.2c-0.9-0.8-2.1-1.5-2.7-1.5c-0.6,0-1.4-0.6-1.7-1.3
	c-0.5-0.9-0.7-0.9-1.2,0c-0.3,0.7-1.7,1.1-3.2,0.899c-1.5-0.199-2-0.1-1.1,0.101c1.5,0.399,1.6,0.7,0.2,3.399c-1,2-2,2.801-3,2.5
	c-0.8-0.3-1.9-0.6-2.4-0.6c-1.4,0-1.1-2.6,0.6-4c0.8-0.7,1.5-2.1,1.5-3.1c0-1.601,0.7-1.9,4.5-1.7C126,167.2,128,167.7,128,168.1z
	 M80.7,169.6c-0.3,0.301-1.2,0.4-1.9,0.101c-0.8-0.3-0.5-0.601,0.6-0.601C80.5,169,81.1,169.3,80.7,169.6z M86.3,170.7
	c-0.7,0.2-1.9,0.2-2.5,0c-0.7-0.3-0.2-0.5,1.2-0.5S86.9,170.4,86.3,170.7z M91.7,171.6c-0.3,0.301-1.2,0.4-1.9,0.101
	c-0.8-0.3-0.5-0.601,0.6-0.601C91.5,171,92.1,171.3,91.7,171.6z M131.4,173.7c0.8,2-1.8,3.8-5.6,3.8c-3,0.1-3.8-2.1-1.6-4.3
	C126,171.4,130.7,171.7,131.4,173.7z"/>
<path d="M123.8,162.7c0.7,0.3,1.6,0.2,1.9-0.101c0.4-0.3-0.2-0.6-1.3-0.5C123.3,162.1,123,162.4,123.8,162.7z"/>
<path d="M139.4,165.2l-1.9,2.3l2.3-1.9c2.1-1.8,2.7-2.6,1.9-2.6C141.5,163,140.5,164,139.4,165.2z"/>
<path d="M68.5,146c-0.3,0.5-0.1,1,0.4,1c0.6,0,1.1-0.5,1.1-1c0-0.6-0.2-1-0.4-1C69.3,145,68.8,145.4,68.5,146z"/>
<path d="M74,147.1c0,0.5,0.5,0.7,1,0.4c0.6-0.3,1-0.8,1-1.1c0-0.2-0.4-0.4-1-0.4C74.5,146,74,146.5,74,147.1z"/>
<path d="M114,148c0,0.5,0.5,1,1,1c0.6,0,1-0.5,1-1c0-0.6-0.4-1-1-1C114.5,147,114,147.4,114,148z"/>
<path d="M204.5,154.7c-15,8.8-14,8.1-13.3,8.899c0.399,0.301,7.3-3.3,15.399-8c8.2-4.699,14-8.6,12.9-8.6S211.7,150.5,204.5,154.7z"
	/>
<path d="M92.5,150c-0.3,0.6,0.1,0.7,0.9,0.4c1.8-0.7,2.1-1.4,0.7-1.4C93.5,149,92.8,149.4,92.5,150z"/>
<path d="M118.3,151.7c0.9,0.2,2.3,0.2,3,0c0.6-0.3-0.1-0.5-1.8-0.5C117.9,151.2,117.3,151.4,118.3,151.7z"/>
<path d="M130.5,153.5c4.4,0.8,9.4,1.3,11,1.3c1.7,0-0.6-0.6-5-1.3c-4.4-0.8-9.3-1.3-11-1.3C123.9,152.2,126.1,152.8,130.5,153.5z"/>
<path d="M43.6,153.9c-0.3,0.399,0,0.8,0.7,0.899c0.7,0,3,0.3,5.2,0.601c2.2,0.3,3.1,0.3,2,0c-1.1-0.301-3.2-0.9-4.7-1.4
	S43.8,153.5,43.6,153.9z"/>
<path d="M241,161.5c-4.9,4.7-8.5,8.5-8.2,8.5c1.8-0.1,5.4-3,10.101-8.1c8.3-9.2,12.8-9.9,20.1-3.301c3.1,2.801,3.9,4.2,3.6,6.101
	c-0.399,2-0.199,2.2,0.9,1.3s2.2,0.5,5.7,7.7c3.8,7.8,4.8,9,8.8,11c4.6,2.3,9.2,2.8,14.9,1.7c5.399-1.101,3.399-2.4-2.801-1.801
	C283.7,185.7,278,182.2,274,172.1c-1.1-3-3.2-6.699-4.6-8.3c-1.301-1.6-2.4-3.399-2.4-3.899s-1.9-2.2-4.2-3.9c-3.1-2.3-5.2-3-8.5-3
	C250.1,153,249.4,153.4,241,161.5z"/>
<path d="M172,156c0,1.5-0.7,2-2.6,2c-1.4,0-2.301-0.4-1.9-1c0.3-0.6-0.1-1.3-1-1.7c-1-0.3-2-0.1-2.4,0.601c-0.5,0.8-2.899,0.8-9,0
	c-4.6-0.5-8.5-0.801-8.8-0.5c-0.6,0.5,9.7,1.899,15.2,2c2.2,0.1,4.2,0.399,4.5,0.699c0.3,0.301,2.6,0.9,5.3,1.2
	c4.5,0.601,4.7,0.5,4.7-1.7c0-1.3-0.7-2.699-1.6-3C172.1,153.7,172,153.8,172,156z"/>
<path d="M139.8,156.7c0.6,0.2,1.8,0.2,2.5,0c0.6-0.3,0.1-0.5-1.3-0.5S139.1,156.4,139.8,156.7z"/>
<path d="M145.5,158c-0.3,0.5-0.1,1,0.4,1c0.6,0,1.1-0.5,1.1-1c0-0.6-0.2-1-0.4-1C146.3,157,145.8,157.4,145.5,158z"/>
<path d="M103.8,159.7c0.7,0.3,1.6,0.2,1.9-0.101c0.4-0.3-0.2-0.6-1.3-0.5C103.3,159.1,103,159.4,103.8,159.7z"/>
<path d="M156.6,160.2c-0.6,1.3-1.3,1.5-3.1,0.8c-1.5-0.6-2.7-0.6-3,0c-0.4,0.6,0.3,1,1.4,1c1.199,0,2.1,0.4,2.1,1c0,0.5-0.4,1-1,1
	c-0.5,0-1,0.7-1,1.5c0,1,1,1.5,3,1.5c1.7,0,3,0.4,3,1c0,0.5-0.4,1-1,1c-0.5,0-1,0.7-1,1.5s-0.4,1.5-1,1.5c-0.5,0-1-0.5-1-1
	c0-0.6-1-1-2.2-1c-1.6,0-1.9-0.3-1.1-1.1c0.6-0.601,0.899-1.801,0.6-2.5c-0.6-1.601-3.9-1.9-4.7-0.5c-0.4,0.5,0.4,0.699,1.6,0.3
	c1.7-0.4,2-0.2,1.5,1.2c-0.4,1-0.7,1.899-0.7,2.1s-1.3,0-2.9-0.5c-2.2-0.6-3.1-0.5-3.5,0.6c-0.3,0.7-0.2,1.301,0.2,1.301
	c2-0.301,3.2,0.199,2.6,1.199c-0.3,0.601-1.9,0.9-3.3,0.7c-1.6-0.2-3.3,0.2-4.1,1.101c-1.2,1.3-1.2,1.399,0.4,0.8
	c1-0.4,4.1-0.4,6.8-0.101c4.5,0.601,4.8,0.801,3.3,2.4c-0.8,0.9-1.5,2.2-1.5,2.9c0,0.8-1.1,1-3.7,0.6c-6.7-1.2-7.7-1.6-6.2-2.6
	c1.1-0.7,1.1-0.9-0.2-0.9c-0.9,0-2.2,0.6-2.8,1.4c-1.5,1.8-1.5,1.8,15.8,4.699l13.4,2.301l3-3.5c1.601-1.801,5.9-6.5,9.4-10.2
	c5.7-6.2,6.2-7,4.7-8.4c-1.2-1.3-1.5-1.3-1.4-0.2c0.4,2.5,0,3.9-1,3.9c-0.5,0-1-0.7-1-1.5s-0.9-1.5-2-1.5c-1,0-2.3-0.7-2.8-1.6
	c-0.601-1.101-1.101-1.301-1.601-0.5c-1.199,1.8-5.6,1.399-5.6-0.601c0-1.3-0.3-1.399-1.2-0.5c-1.8,1.8-5.6,1.5-6.1-0.6
	C157.3,158.6,157.3,158.6,156.6,160.2z M161,163.8c0,1.7-2.2,2.9-4.6,2.4c-1.9-0.3-2.2-0.7-1.301-1.8
	C156.3,162.9,161,162.5,161,163.8z M168,165.5c-0.7,0.8-2.6,1.5-4.2,1.5c-4.2,0-2.1-2.5,2.3-2.8C168.9,164,169.1,164.2,168,165.5z
	 M176.4,166.7c0.399,0.899,0,2.3-0.801,3.2c-1.399,1.3-1.6,1.3-2.199-0.2c-0.301-0.9-1.5-1.7-2.5-1.7c-1.9,0-2.5-1.1-1.2-2.3
	C171,164.3,175.8,165,176.4,166.7z M165,168.7c0,0.2-0.5,1.2-1.2,2.2c-1,1.6-1.5,1.699-3.2,0.699c-1.199-0.6-2.3-1.199-2.5-1.3
	c-0.1-0.1,0-0.7,0.4-1.2C159,168.1,165,167.8,165,168.7z M171.5,170.4c1.7,1.199,1.7,1.6,0.5,3.1s-1.4,1.5-2.2,0.1
	c-0.5-0.899-1.8-1.6-3-1.6c-1.7,0-1.8-0.2-0.8-1.5C167.6,168.6,169.1,168.6,171.5,170.4z M151.8,171.6c3.4,0.9,1,3.2-2.8,2.601
	c-2.5-0.3-2.8-0.7-1.9-1.8C148.4,170.8,148.6,170.8,151.8,171.6z M160.1,173c0.601,0,0.7,0.4,0.4,1c-0.3,0.5-2,1-3.7,1
	c-2.6,0-2.899-0.2-1.8-1.5c0.7-0.9,2-1.3,2.7-1C158.5,172.8,159.6,173,160.1,173z M169,175.7c0,0.899-1.4,3.1-3,4.8
	c-2.4,2.5-3.6,3-6.3,2.7c-3-0.3-3.3-0.7-2.9-2.8c0.2-1.4,0-2.4-0.7-2.4c-0.6,0-1.1,1-1.1,2.3c0,2-0.4,2.3-3,1.9
	c-3.4-0.5-4.1-3.101-1.4-5.3c1.2-1,2.2-1,4.5-0.2c2.4,0.899,3.301,0.8,5.101-0.8C163.2,173.5,169,173.3,169,175.7z"/>
<path d="M164,178.5c-0.7,0.9-1.1,1.8-0.8,2c0.3,0.3,1.1-0.1,1.8-1s1.1-1.8,0.8-2C165.5,177.2,164.7,177.6,164,178.5z"/>
<path d="M180,160c0,0.5,1,1,2.3,1c1.8,0,1.9-0.2,0.7-1C181.1,158.7,180,158.7,180,160z"/>
<path d="M28.7,165c-4.4,3.9-4.5,4.1-3.4,7.5c0.6,1.9,1.4,3.5,1.9,3.5s0.6-0.5,0.3-1c-0.3-0.6-0.1-1,0.5-1c1.2,0,93.3,16.1,120,20.9
	c9.6,1.8,16.1,2.5,17.1,2c0.9-0.5,5.4-5.101,9.9-10.4c4.6-5.2,8.5-9.3,8.8-9c0.3,0.2-0.1,1.3-0.899,2.2
	c-0.7,1-0.101,0.7,1.399-0.601c3-2.699,3.8-5.199,1-3c-1.6,1.301-1.7,1.2-0.399-0.3c0.699-1,1.699-1.6,2.1-1.3
	c1.4,0.9,5.2-4.3,4.8-6.7c-0.2-1.2-0.7-2.1-1.3-1.8c-0.5,0.3-0.9,0.9-0.7,1.4c0.4,1.3-2.899,4.6-4,4c-0.399-0.301-0.7-0.101-0.6,0.5
	c0.2,0.6-4.2,6.3-9.7,12.699l-10,11.601l-5-0.5c-4.3-0.4-39.9-6.5-115.4-19.9c-21.2-3.8-22-4.3-14.8-10.899
	C35.9,159.8,34.5,159.9,28.7,165z"/>
<path d="M214.7,167.8c-1.7,1.9-1.601,1.9,2.899,2.601c7.301,1,11.101,0.699,12.301-0.801c0.899-1.1,0.3-1.5-3.601-2
	c-2.7-0.399-6-0.899-7.399-1.199C217.2,166.1,215.8,166.5,214.7,167.8z M227.5,169.1c2.8,1.101-3.8,1-9-0.1
	c-3.9-0.8-3.9-0.8,1.5-0.8C223.1,168.3,226.5,168.7,227.5,169.1z"/>
<path d="M106,168c0,0.5,0.7,1,1.5,1s1.5-0.5,1.5-1c0-0.6-0.7-1-1.5-1S106,167.4,106,168z"/>
<path d="M206.9,173.5c-3,3.5-5.7,7.8-6,9.5c-0.7,3.4-0.4,3.7,1.8,1.4c1.3-1.301,1.399-1.7,0.3-2.4c-1-0.6-0.1-2.3,3.7-6.7
	c5-5.899,6.8-8.3,6-8.3C212.5,167,209.8,169.9,206.9,173.5z"/>
<path d="M235.5,174.6c0.4,4.9,0.2,5.301-4,9.4c-2.4,2.4-4.3,4.8-4.2,5.3c0.101,0.601-1.899,1-4.8,1l-5-0.1l4.5,0.8l4.5,0.7l-4.5,0.1
	c-2.5,0-8.1-0.5-12.5-1.3c-5.8-0.9-6.9-1.3-4.1-1.4c4.8-0.1,4.399-0.699-1-1.399c-3.2-0.4-4.101-0.2-4,0.899
	c0.1,0.7,0.399,1.5,0.699,1.801c0.9,0.899,23.2,3.5,24.4,2.8c1.5-0.9,10-10.2,10.1-11.101c0-0.3,0.4-1.399,0.9-2.399
	c0.4-1,0.3-3.7-0.3-6l-1.101-4.2L235.5,174.6z M235,182.3c0,0.2-1.7,1.9-3.7,3.8l-3.8,3.4l3.4-3.8C234.2,182.3,235,181.5,235,182.3z
	"/>
<path d="M208.6,174.9c-0.3,0.399,0.601,0.6,1.9,0.3c1.4-0.2,2.5-0.601,2.5-0.8C213,173.6,209.1,174,208.6,174.9z"/>
<path d="M51.8,175.7c0.6,0.2,1.8,0.2,2.5,0c0.6-0.3,0.1-0.5-1.3-0.5S51.1,175.4,51.8,175.7z"/>
<path d="M28.3,177.6c0.5,0.601,17,3.7,81.7,15.301c47.6,8.6,52.8,9.399,55.3,8.699c1.2-0.3,4-2.199,6.2-4.199s3.4-3.301,2.8-2.9
	c-2.3,1.2-1.3-0.6,3.2-5.9c2.5-2.899,4.5-5.6,4.5-6c0-0.399-3.4,3.2-7.6,8.101c-4.101,4.8-8.301,9.1-9.301,9.5
	c-1.8,0.6-22.7-2.9-95.899-16.2C31.4,177.1,27.1,176.4,28.3,177.6z"/>
<path d="M141.3,178.7c0.9,0.2,2.3,0.2,3,0c0.6-0.3-0.1-0.5-1.8-0.5C140.9,178.2,140.3,178.4,141.3,178.7z"/>
<path d="M207,183.4c0,0.199,0.9,0.6,2,0.899s2,0.101,2-0.399s-0.9-0.9-2-0.9S207,183.2,207,183.4z"/>
<path d="M215.3,184.7c0.9,0.2,2.3,0.2,3,0c0.601-0.3-0.1-0.5-1.8-0.5C214.9,184.2,214.3,184.4,215.3,184.7z"/>
<path d="M212.3,189.7c0.9,0.2,2.3,0.2,3,0c0.601-0.3-0.1-0.5-1.8-0.5C211.9,189.2,211.3,189.4,212.3,189.7z"/>
</svg>
